{
	"asset":{
		"generator":"Khronos glTF Blender I/O v4.2.80",
		"version":"2.0"
	},
	"extensionsUsed":[
		"KHR_materials_specular"
	],
	"scene":0,
	"scenes":[
		{
			"name":"Scene",
			"nodes":[
				0,
				1,
				2,
				3,
				4,
				5,
				6
			]
		}
	],
	"nodes":[
		{
			"mesh":0,
			"name":"WPN_AKM",
			"scale":[
				0.009999999776482582,
				0.009999999776482582,
				0.009999999776482582
			],
			"translation":[
				0.00447129225358367,
				0.040943607687950134,
				0.08309341967105865
			]
		},
		{
			"mesh":1,
			"name":"WPN_AKM_magazine",
			"scale":[
				0.009999999776482582,
				0.009999999776482582,
				0.009999999776482582
			],
			"translation":[
				0.004471330437809229,
				-0.09036357700824738,
				0.02547016553580761
			]
		},
		{
			"mesh":2,
			"name":"WPN_AKM_trigger",
			"scale":[
				0.009999999776482582,
				0.009999999776482582,
				0.009999999776482582
			],
			"translation":[
				0.004471301566809416,
				-0.014093571342527866,
				-0.09686429053544998
			]
		},
		{
			"mesh":3,
			"name":"WPN_AKM_safetyswitch",
			"scale":[
				0.009999999776482582,
				0.009999999776482582,
				0.009999999776482582
			],
			"translation":[
				-0.016742808744311333,
				0.006271287798881531,
				-0.11843501031398773
			]
		},
		{
			"mesh":4,
			"name":"WPN_AKM_bolt_carrier",
			"scale":[
				0.009999999776482582,
				0.009999999776482582,
				0.009999999776482582
			],
			"translation":[
				-0.005939979571849108,
				0.035644181072711945,
				0.04383879154920578
			]
		},
		{
			"mesh":5,
			"name":"WPN_AKM_rear_sight_leaf",
			"scale":[
				0.009999999776482582,
				0.009999999776482582,
				0.009999999776482582
			],
			"translation":[
				0.0038580961991101503,
				0.06077978387475014,
				0.09821736812591553
			]
		},
		{
			"mesh":6,
			"name":"cal_7_62x39",
			"scale":[
				0.009999999776482582,
				0.009999999776482582,
				0.009999999776482582
			],
			"translation":[
				0,
				0.09208877384662628,
				-0.003906290512531996
			]
		}
	],
	"animations":[
		{
			"channels":[
				{
					"sampler":0,
					"target":{
						"node":0,
						"path":"translation"
					}
				},
				{
					"sampler":1,
					"target":{
						"node":0,
						"path":"rotation"
					}
				},
				{
					"sampler":2,
					"target":{
						"node":0,
						"path":"scale"
					}
				}
			],
			"name":"WPN_AKM|Take 001|BaseLayer",
			"samplers":[
				{
					"input":28,
					"interpolation":"LINEAR",
					"output":29
				},
				{
					"input":28,
					"interpolation":"LINEAR",
					"output":30
				},
				{
					"input":28,
					"interpolation":"LINEAR",
					"output":31
				}
			]
		},
		{
			"channels":[
				{
					"sampler":0,
					"target":{
						"node":1,
						"path":"translation"
					}
				},
				{
					"sampler":1,
					"target":{
						"node":1,
						"path":"rotation"
					}
				},
				{
					"sampler":2,
					"target":{
						"node":1,
						"path":"scale"
					}
				}
			],
			"name":"WPN_AKM_magazine|Take 001|BaseLayer",
			"samplers":[
				{
					"input":28,
					"interpolation":"LINEAR",
					"output":32
				},
				{
					"input":28,
					"interpolation":"LINEAR",
					"output":33
				},
				{
					"input":28,
					"interpolation":"LINEAR",
					"output":34
				}
			]
		},
		{
			"channels":[
				{
					"sampler":0,
					"target":{
						"node":2,
						"path":"translation"
					}
				},
				{
					"sampler":1,
					"target":{
						"node":2,
						"path":"rotation"
					}
				},
				{
					"sampler":2,
					"target":{
						"node":2,
						"path":"scale"
					}
				}
			],
			"name":"WPN_AKM_trigger|Take 001|BaseLayer",
			"samplers":[
				{
					"input":28,
					"interpolation":"LINEAR",
					"output":35
				},
				{
					"input":28,
					"interpolation":"LINEAR",
					"output":36
				},
				{
					"input":28,
					"interpolation":"LINEAR",
					"output":37
				}
			]
		},
		{
			"channels":[
				{
					"sampler":0,
					"target":{
						"node":3,
						"path":"translation"
					}
				},
				{
					"sampler":1,
					"target":{
						"node":3,
						"path":"rotation"
					}
				},
				{
					"sampler":2,
					"target":{
						"node":3,
						"path":"scale"
					}
				}
			],
			"name":"WPN_AKM_safetyswitch|Take 001|BaseLayer",
			"samplers":[
				{
					"input":28,
					"interpolation":"LINEAR",
					"output":38
				},
				{
					"input":28,
					"interpolation":"LINEAR",
					"output":39
				},
				{
					"input":28,
					"interpolation":"LINEAR",
					"output":40
				}
			]
		},
		{
			"channels":[
				{
					"sampler":0,
					"target":{
						"node":4,
						"path":"translation"
					}
				},
				{
					"sampler":1,
					"target":{
						"node":4,
						"path":"rotation"
					}
				},
				{
					"sampler":2,
					"target":{
						"node":4,
						"path":"scale"
					}
				}
			],
			"name":"WPN_AKM_bolt_carrier|Take 001|BaseLayer",
			"samplers":[
				{
					"input":28,
					"interpolation":"LINEAR",
					"output":41
				},
				{
					"input":28,
					"interpolation":"LINEAR",
					"output":42
				},
				{
					"input":28,
					"interpolation":"LINEAR",
					"output":43
				}
			]
		},
		{
			"channels":[
				{
					"sampler":0,
					"target":{
						"node":5,
						"path":"translation"
					}
				},
				{
					"sampler":1,
					"target":{
						"node":5,
						"path":"rotation"
					}
				},
				{
					"sampler":2,
					"target":{
						"node":5,
						"path":"scale"
					}
				}
			],
			"name":"WPN_AKM_rear_sight_leaf|Take 001|BaseLayer",
			"samplers":[
				{
					"input":28,
					"interpolation":"LINEAR",
					"output":44
				},
				{
					"input":28,
					"interpolation":"LINEAR",
					"output":45
				},
				{
					"input":28,
					"interpolation":"LINEAR",
					"output":46
				}
			]
		},
		{
			"channels":[
				{
					"sampler":0,
					"target":{
						"node":6,
						"path":"translation"
					}
				},
				{
					"sampler":1,
					"target":{
						"node":6,
						"path":"rotation"
					}
				},
				{
					"sampler":2,
					"target":{
						"node":6,
						"path":"scale"
					}
				}
			],
			"name":"cal_7_62x39|Take 001|BaseLayer",
			"samplers":[
				{
					"input":28,
					"interpolation":"LINEAR",
					"output":47
				},
				{
					"input":28,
					"interpolation":"LINEAR",
					"output":48
				},
				{
					"input":28,
					"interpolation":"LINEAR",
					"output":49
				}
			]
		}
	],
	"materials":[
		{
			"doubleSided":true,
			"extensions":{
				"KHR_materials_specular":{
					"specularFactor":0
				}
			},
			"name":"WPNM_AKM",
			"pbrMetallicRoughness":{
				"baseColorFactor":[
					0.9529412388801575,
					0.9529412388801575,
					0.9529412388801575,
					1
				],
				"roughnessFactor":0.858578622341156
			}
		},
		{
			"doubleSided":true,
			"extensions":{
				"KHR_materials_specular":{
					"specularFactor":0
				}
			},
			"name":"WPNM_calibers",
			"pbrMetallicRoughness":{
				"baseColorFactor":[
					0.5882353186607361,
					0.8431373238563538,
					0.9058824181556702,
					1
				],
				"roughnessFactor":0.858578622341156
			}
		}
	],
	"meshes":[
		{
			"name":"Mesh",
			"primitives":[
				{
					"attributes":{
						"POSITION":0,
						"NORMAL":1,
						"TEXCOORD_0":2
					},
					"indices":3,
					"material":0
				}
			]
		},
		{
			"name":"Mesh.001",
			"primitives":[
				{
					"attributes":{
						"POSITION":4,
						"NORMAL":5,
						"TEXCOORD_0":6
					},
					"indices":7,
					"material":0
				}
			]
		},
		{
			"name":"Mesh.002",
			"primitives":[
				{
					"attributes":{
						"POSITION":8,
						"NORMAL":9,
						"TEXCOORD_0":10
					},
					"indices":11,
					"material":0
				}
			]
		},
		{
			"name":"Mesh.003",
			"primitives":[
				{
					"attributes":{
						"POSITION":12,
						"NORMAL":13,
						"TEXCOORD_0":14
					},
					"indices":15,
					"material":0
				}
			]
		},
		{
			"name":"Mesh.004",
			"primitives":[
				{
					"attributes":{
						"POSITION":16,
						"NORMAL":17,
						"TEXCOORD_0":18
					},
					"indices":19,
					"material":0
				}
			]
		},
		{
			"name":"Mesh.005",
			"primitives":[
				{
					"attributes":{
						"POSITION":20,
						"NORMAL":21,
						"TEXCOORD_0":22
					},
					"indices":23,
					"material":0
				}
			]
		},
		{
			"name":"Mesh.006",
			"primitives":[
				{
					"attributes":{
						"POSITION":24,
						"NORMAL":25,
						"TEXCOORD_0":26
					},
					"indices":27,
					"material":1
				}
			]
		}
	],
	"accessors":[
		{
			"bufferView":0,
			"componentType":5126,
			"count":10736,
			"max":[
				2.4560279846191406,
				2.423696994781494,
				37.30013656616211
			],
			"min":[
				-1.9931762218475342,
				-16.159767150878906,
				-50.7593994140625
			],
			"type":"VEC3"
		},
		{
			"bufferView":1,
			"componentType":5126,
			"count":10736,
			"type":"VEC3"
		},
		{
			"bufferView":2,
			"componentType":5126,
			"count":10736,
			"type":"VEC2"
		},
		{
			"bufferView":3,
			"componentType":5123,
			"count":37695,
			"type":"SCALAR"
		},
		{
			"bufferView":4,
			"componentType":5126,
			"count":2201,
			"max":[
				1.3123106956481934,
				9.927167892456055,
				7.101722717285156
			],
			"min":[
				-1.3123106956481934,
				-9.927166938781738,
				-7.101722717285156
			],
			"type":"VEC3"
		},
		{
			"bufferView":5,
			"componentType":5126,
			"count":2201,
			"type":"VEC3"
		},
		{
			"bufferView":6,
			"componentType":5126,
			"count":2201,
			"type":"VEC2"
		},
		{
			"bufferView":7,
			"componentType":5123,
			"count":8745,
			"type":"SCALAR"
		},
		{
			"bufferView":8,
			"componentType":5126,
			"count":166,
			"max":[
				0.5363806486129761,
				-0.014093279838562012,
				0.8279943466186523
			],
			"min":[
				-0.5363806486129761,
				-2.6611948013305664,
				-0.8892965316772461
			],
			"type":"VEC3"
		},
		{
			"bufferView":9,
			"componentType":5126,
			"count":166,
			"type":"VEC3"
		},
		{
			"bufferView":10,
			"componentType":5126,
			"count":166,
			"type":"VEC2"
		},
		{
			"bufferView":11,
			"componentType":5123,
			"count":522,
			"type":"SCALAR"
		},
		{
			"bufferView":12,
			"componentType":5126,
			"count":593,
			"max":[
				0.5349999666213989,
				2.0291378498077393,
				9.608572959899902
			],
			"min":[
				-0.16640901565551758,
				-1.0626819133758545,
				-1.0609922409057617
			],
			"type":"VEC3"
		},
		{
			"bufferView":13,
			"componentType":5126,
			"count":593,
			"type":"VEC3"
		},
		{
			"bufferView":14,
			"componentType":5126,
			"count":593,
			"type":"VEC2"
		},
		{
			"bufferView":15,
			"componentType":5123,
			"count":1860,
			"type":"SCALAR"
		},
		{
			"bufferView":16,
			"componentType":5126,
			"count":267,
			"max":[
				2.1841721534729004,
				1.6561236381530762,
				7.111474990844727
			],
			"min":[
				-2.1841721534729004,
				-2.646131992340088,
				-7.111474990844727
			],
			"type":"VEC3"
		},
		{
			"bufferView":17,
			"componentType":5126,
			"count":267,
			"type":"VEC3"
		},
		{
			"bufferView":18,
			"componentType":5126,
			"count":267,
			"type":"VEC2"
		},
		{
			"bufferView":19,
			"componentType":5123,
			"count":732,
			"type":"SCALAR"
		},
		{
			"bufferView":20,
			"componentType":5126,
			"count":687,
			"max":[
				1.1256659030914307,
				0.5412030220031738,
				0.7183856964111328
			],
			"min":[
				-1.003035545349121,
				-0.2737393379211426,
				-5.107965469360352
			],
			"type":"VEC3"
		},
		{
			"bufferView":21,
			"componentType":5126,
			"count":687,
			"type":"VEC3"
		},
		{
			"bufferView":22,
			"componentType":5126,
			"count":687,
			"type":"VEC2"
		},
		{
			"bufferView":23,
			"componentType":5123,
			"count":1848,
			"type":"SCALAR"
		},
		{
			"bufferView":24,
			"componentType":5126,
			"count":520,
			"max":[
				0.5576158761978149,
				0.5576146841049194,
				2.7965431213378906
			],
			"min":[
				-0.5576158165931702,
				-0.5576169490814209,
				-2.796541213989258
			],
			"type":"VEC3"
		},
		{
			"bufferView":25,
			"componentType":5126,
			"count":520,
			"type":"VEC3"
		},
		{
			"bufferView":26,
			"componentType":5126,
			"count":520,
			"type":"VEC2"
		},
		{
			"bufferView":27,
			"componentType":5123,
			"count":2286,
			"type":"SCALAR"
		},
		{
			"bufferView":28,
			"componentType":5126,
			"count":1,
			"max":[
				0.03333333333333333
			],
			"min":[
				0.03333333333333333
			],
			"type":"SCALAR"
		},
		{
			"bufferView":29,
			"componentType":5126,
			"count":1,
			"type":"VEC3"
		},
		{
			"bufferView":30,
			"componentType":5126,
			"count":1,
			"type":"VEC4"
		},
		{
			"bufferView":31,
			"componentType":5126,
			"count":1,
			"type":"VEC3"
		},
		{
			"bufferView":32,
			"componentType":5126,
			"count":1,
			"type":"VEC3"
		},
		{
			"bufferView":33,
			"componentType":5126,
			"count":1,
			"type":"VEC4"
		},
		{
			"bufferView":34,
			"componentType":5126,
			"count":1,
			"type":"VEC3"
		},
		{
			"bufferView":35,
			"componentType":5126,
			"count":1,
			"type":"VEC3"
		},
		{
			"bufferView":36,
			"componentType":5126,
			"count":1,
			"type":"VEC4"
		},
		{
			"bufferView":37,
			"componentType":5126,
			"count":1,
			"type":"VEC3"
		},
		{
			"bufferView":38,
			"componentType":5126,
			"count":1,
			"type":"VEC3"
		},
		{
			"bufferView":39,
			"componentType":5126,
			"count":1,
			"type":"VEC4"
		},
		{
			"bufferView":40,
			"componentType":5126,
			"count":1,
			"type":"VEC3"
		},
		{
			"bufferView":41,
			"componentType":5126,
			"count":1,
			"type":"VEC3"
		},
		{
			"bufferView":42,
			"componentType":5126,
			"count":1,
			"type":"VEC4"
		},
		{
			"bufferView":43,
			"componentType":5126,
			"count":1,
			"type":"VEC3"
		},
		{
			"bufferView":44,
			"componentType":5126,
			"count":1,
			"type":"VEC3"
		},
		{
			"bufferView":45,
			"componentType":5126,
			"count":1,
			"type":"VEC4"
		},
		{
			"bufferView":46,
			"componentType":5126,
			"count":1,
			"type":"VEC3"
		},
		{
			"bufferView":47,
			"componentType":5126,
			"count":1,
			"type":"VEC3"
		},
		{
			"bufferView":48,
			"componentType":5126,
			"count":1,
			"type":"VEC4"
		},
		{
			"bufferView":49,
			"componentType":5126,
			"count":1,
			"type":"VEC3"
		}
	],
	"bufferViews":[
		{
			"buffer":0,
			"byteLength":128832,
			"byteOffset":0,
			"target":34962
		},
		{
			"buffer":0,
			"byteLength":128832,
			"byteOffset":128832,
			"target":34962
		},
		{
			"buffer":0,
			"byteLength":85888,
			"byteOffset":257664,
			"target":34962
		},
		{
			"buffer":0,
			"byteLength":75390,
			"byteOffset":343552,
			"target":34963
		},
		{
			"buffer":0,
			"byteLength":26412,
			"byteOffset":418944,
			"target":34962
		},
		{
			"buffer":0,
			"byteLength":26412,
			"byteOffset":445356,
			"target":34962
		},
		{
			"buffer":0,
			"byteLength":17608,
			"byteOffset":471768,
			"target":34962
		},
		{
			"buffer":0,
			"byteLength":17490,
			"byteOffset":489376,
			"target":34963
		},
		{
			"buffer":0,
			"byteLength":1992,
			"byteOffset":506868,
			"target":34962
		},
		{
			"buffer":0,
			"byteLength":1992,
			"byteOffset":508860,
			"target":34962
		},
		{
			"buffer":0,
			"byteLength":1328,
			"byteOffset":510852,
			"target":34962
		},
		{
			"buffer":0,
			"byteLength":1044,
			"byteOffset":512180,
			"target":34963
		},
		{
			"buffer":0,
			"byteLength":7116,
			"byteOffset":513224,
			"target":34962
		},
		{
			"buffer":0,
			"byteLength":7116,
			"byteOffset":520340,
			"target":34962
		},
		{
			"buffer":0,
			"byteLength":4744,
			"byteOffset":527456,
			"target":34962
		},
		{
			"buffer":0,
			"byteLength":3720,
			"byteOffset":532200,
			"target":34963
		},
		{
			"buffer":0,
			"byteLength":3204,
			"byteOffset":535920,
			"target":34962
		},
		{
			"buffer":0,
			"byteLength":3204,
			"byteOffset":539124,
			"target":34962
		},
		{
			"buffer":0,
			"byteLength":2136,
			"byteOffset":542328,
			"target":34962
		},
		{
			"buffer":0,
			"byteLength":1464,
			"byteOffset":544464,
			"target":34963
		},
		{
			"buffer":0,
			"byteLength":8244,
			"byteOffset":545928,
			"target":34962
		},
		{
			"buffer":0,
			"byteLength":8244,
			"byteOffset":554172,
			"target":34962
		},
		{
			"buffer":0,
			"byteLength":5496,
			"byteOffset":562416,
			"target":34962
		},
		{
			"buffer":0,
			"byteLength":3696,
			"byteOffset":567912,
			"target":34963
		},
		{
			"buffer":0,
			"byteLength":6240,
			"byteOffset":571608,
			"target":34962
		},
		{
			"buffer":0,
			"byteLength":6240,
			"byteOffset":577848,
			"target":34962
		},
		{
			"buffer":0,
			"byteLength":4160,
			"byteOffset":584088,
			"target":34962
		},
		{
			"buffer":0,
			"byteLength":4572,
			"byteOffset":588248,
			"target":34963
		},
		{
			"buffer":0,
			"byteLength":4,
			"byteOffset":592820
		},
		{
			"buffer":0,
			"byteLength":12,
			"byteOffset":592824
		},
		{
			"buffer":0,
			"byteLength":16,
			"byteOffset":592836
		},
		{
			"buffer":0,
			"byteLength":12,
			"byteOffset":592852
		},
		{
			"buffer":0,
			"byteLength":12,
			"byteOffset":592864
		},
		{
			"buffer":0,
			"byteLength":16,
			"byteOffset":592876
		},
		{
			"buffer":0,
			"byteLength":12,
			"byteOffset":592892
		},
		{
			"buffer":0,
			"byteLength":12,
			"byteOffset":592904
		},
		{
			"buffer":0,
			"byteLength":16,
			"byteOffset":592916
		},
		{
			"buffer":0,
			"byteLength":12,
			"byteOffset":592932
		},
		{
			"buffer":0,
			"byteLength":12,
			"byteOffset":592944
		},
		{
			"buffer":0,
			"byteLength":16,
			"byteOffset":592956
		},
		{
			"buffer":0,
			"byteLength":12,
			"byteOffset":592972
		},
		{
			"buffer":0,
			"byteLength":12,
			"byteOffset":592984
		},
		{
			"buffer":0,
			"byteLength":16,
			"byteOffset":592996
		},
		{
			"buffer":0,
			"byteLength":12,
			"byteOffset":593012
		},
		{
			"buffer":0,
			"byteLength":12,
			"byteOffset":593024
		},
		{
			"buffer":0,
			"byteLength":16,
			"byteOffset":593036
		},
		{
			"buffer":0,
			"byteLength":12,
			"byteOffset":593052
		},
		{
			"buffer":0,
			"byteLength":12,
			"byteOffset":593064
		},
		{
			"buffer":0,
			"byteLength":16,
			"byteOffset":593076
		},
		{
			"buffer":0,
			"byteLength":12,
			"byteOffset":593092
		}
	],
	"buffers":[
		{
			"byteLength":593104,
			"uri":"ak47.bin"
		}
	]
}
