o Pool
v -2.0000 0.0000 -2.0000
v 2.0000 0.0000 -2.0000
v 2.0000 0.2000 -2.0000
v -2.0000 0.2000 -2.0000
v -2.0000 0.0000 2.0000
v 2.0000 0.0000 2.0000
v 2.0000 0.2000 2.0000
v -2.0000 0.2000 2.0000
f 1 2 3 4
f 2 6 7 3
f 3 7 8 4
f 4 8 5 1
f 1 5 6 2
f 5 8 7 6
v -2.0000 0.1000 -2.0000
v 2.0000 0.1000 -2.0000
v 2.0000 1.1000 -2.0000
v -2.0000 1.1000 -2.0000
v -2.0000 0.1000 -1.8000
v 2.0000 0.1000 -1.8000
v 2.0000 1.1000 -1.8000
v -2.0000 1.1000 -1.8000
f 9 10 11 12
f 10 14 15 11
f 11 15 16 12
f 12 16 13 9
f 9 13 14 10
f 13 16 15 14
v -2.0000 0.1000 1.8000
v 2.0000 0.1000 1.8000
v 2.0000 1.1000 1.8000
v -2.0000 1.1000 1.8000
v -2.0000 0.1000 2.0000
v 2.0000 0.1000 2.0000
v 2.0000 1.1000 2.0000
v -2.0000 1.1000 2.0000
f 17 18 19 20
f 18 22 23 19
f 19 23 24 20
f 20 24 21 17
f 17 21 22 18
f 21 24 23 22
v 1.8000 0.1000 -1.8000
v 2.0000 0.1000 -1.8000
v 2.0000 1.1000 -1.8000
v 1.8000 1.1000 -1.8000
v 1.8000 0.1000 1.8000
v 2.0000 0.1000 1.8000
v 2.0000 1.1000 1.8000
v 1.8000 1.1000 1.8000
f 25 26 27 28
f 26 30 31 27
f 27 31 32 28
f 28 32 29 25
f 25 29 30 26
f 29 32 31 30
v -2.0000 0.1000 -1.8000
v -1.8000 0.1000 -1.8000
v -1.8000 1.1000 -1.8000
v -2.0000 1.1000 -1.8000
v -2.0000 0.1000 1.8000
v -1.8000 0.1000 1.8000
v -1.8000 1.1000 1.8000
v -2.0000 1.1000 1.8000
f 33 34 35 36
f 34 38 39 35
f 35 39 40 36
f 36 40 37 33
f 33 37 38 34
f 37 40 39 38
