# Staircase
# 5 steps
# Width: 2.0 (-1 to 1)
# Step height: 0.2
# Step depth: 0.3

v -1.0 0.0 0.0
v 1.0 0.0 0.0
v 1.0 0.2 0.0
v -1.0 0.2 0.0
v -1.0 0.2 -0.3
v 1.0 0.2 -0.3
v 1.0 0.4 -0.3
v -1.0 0.4 -0.3
v -1.0 0.4 -0.6
v 1.0 0.4 -0.6
v 1.0 0.6 -0.6
v -1.0 0.6 -0.6
v -1.0 0.6 -0.9
v 1.0 0.6 -0.9
v 1.0 0.8 -0.9
v -1.0 0.8 -0.9
v -1.0 0.8 -1.2
v 1.0 0.8 -1.2
v 1.0 1.0 -1.2
v -1.0 1.0 -1.2
v -1.0 1.0 -1.5
v 1.0 1.0 -1.5

# Step 1 Front
f 1 2 3 4
# Step 1 Top
f 4 3 6 5

# Step 2 Front
f 5 6 7 8
# Step 2 Top
f 8 7 10 9

# Step 3 Front
f 9 10 11 12
# Step 3 Top
f 12 11 14 13

# Step 4 Front
f 13 14 15 16
# Step 4 Top
f 16 15 18 17

# Step 5 Front
f 17 18 19 20
# Step 5 Top
f 20 19 22 21
